<svg xmlns="http://www.w3.org/2000/svg" viewBox="0 0 520 340" fill="none">
  <defs>
    <linearGradient id="screen" x1="155" y1="77" x2="323" y2="230" gradientUnits="userSpaceOnUse"><stop stop-color="#254e69"/><stop offset="1" stop-color="#102137"/></linearGradient>
    <linearGradient id="edge" x1="110" y1="50" x2="410" y2="300" gradientUnits="userSpaceOnUse"><stop stop-color="#7ae9d3"/><stop offset="1" stop-color="#4684e4"/></linearGradient>
    <linearGradient id="base" x1="80" y1="200" x2="410" y2="320" gradientUnits="userSpaceOnUse"><stop stop-color="#193850"/><stop offset="1" stop-color="#101f33"/></linearGradient>
    <radialGradient id="halo"><stop stop-color="#39ccb8" stop-opacity=".18"/><stop offset="1" stop-color="#39ccb8" stop-opacity="0"/></radialGradient>
  </defs>
  <ellipse cx="267" cy="181" rx="247" ry="155" fill="url(#halo)"/>
  <g stroke="#4f8294" stroke-opacity=".2"><path d="m20 232 228-131 253 147M56 254 281 124M103 281 324 153M157 306 372 180M28 202 241 326M68 179 291 308M109 156 338 288"/></g>
  <path d="m93 244 173-100 175 101-173 100L93 244Z" fill="url(#base)" stroke="#3a6275"/><path d="m93 244 175 101 173-100v-12L267 331 93 231v13Z" fill="#172c41"/>
  <path d="m74 178 78 45m183 24 93-54M262 102V54" stroke="#61d8cb" stroke-width="2" stroke-dasharray="5 7"/>
  <g><path d="m147 98 146-41 84 49v124l-145 44-85-50V98Z" fill="#0d1a2b" stroke="url(#edge)" stroke-width="2"/><path d="m159 106 73 43 132-39-73-41-132 37Z" fill="#345d73"/><path d="m158 114 72 43v97l-72-41v-99Z" fill="#193047"/><path d="m243 160 122-36v96l-122 36v-96Z" fill="url(#screen)"/>
    <path d="m252 177 63-19m-63 33 96-29m-96 44 37-11" stroke="#78b9c3" stroke-width="4" stroke-linecap="round"/><path d="m254 233 17-23 20 6 20-37 16 9 24-32" stroke="#66e2c7" stroke-width="3" stroke-linecap="round" stroke-linejoin="round"/>
    <path d="m280 251 21-6v22l29 17-50 15-26-15 26-8v-25Z" fill="#31536a" stroke="#518195"/>
  </g>
  <g><path d="m370 125 46-26 39 22v88l-46 27-39-23v-88Z" fill="#172c43" stroke="#558a9e"/><path d="m370 125 39 23 46-27m-46 27v88" stroke="#558a9e"/><path d="m417 158 29-17m-29 37 29-17m-29 37 29-17" stroke="#3b6175" stroke-width="8"/><path d="m420 156 5-3m-5 23 5-3m-5 23 5-3" stroke="#67e4c6" stroke-width="4"/></g>
  <g><path d="m80 215 61-34 68 39v61l-62 35-67-39v-62Z" fill="#15283d" stroke="#6096ad"/><path d="m90 221 51-28 57 32v43l-50 29-58-33v-43Z" fill="url(#screen)"/><path d="m103 234 39-22 40 23-40 23-39-24Z" fill="#3a697e"/><path d="m119 241 23 13 25-14" stroke="#6de4d0" stroke-width="3"/><path d="m80 277 67 39 62-35 21 12-83 47-88-51 21-12Z" fill="#2d4a62" stroke="#6096ad"/></g>
  <g><rect x="52" y="112" width="94" height="45" rx="12" fill="#183747" stroke="#4b9b95"/><circle cx="73" cy="134" r="9" fill="#59ddbb" fill-opacity=".15"/><path d="m69 134 3 3 5-6" stroke="#75efce" stroke-width="2" stroke-linecap="round"/><path d="M91 130h38m-38 9h26" stroke="#93c7cb" stroke-width="3" stroke-linecap="round"/></g>
  <g><circle cx="266" cy="44" r="26" fill="#1c3d4f" stroke="#589ea2"/><path d="m251 47 12-5 1-12 5-2 2 12 10 4v4l-11-2-1 8 3 2v3l-6-2-6 2v-3l3-2-1-8-11 4v-4Z" fill="#86e7d5"/></g>
  <circle cx="427" cy="65" r="4" fill="#74d5d0"/><circle cx="51" cy="91" r="3" fill="#659ae1"/><path d="M451 266h12m-6-6v12M105 57h10m-5-5v10" stroke="#7cb4c4" stroke-width="2" stroke-linecap="round"/>
</svg>
